<svg width="20" height="14" viewBox="0 0 20 14" fill="none" xmlns="http://www.w3.org/2000/svg">
<g clip-path="url(#clip0_2086_1846)">
<path fill-rule="evenodd" clip-rule="evenodd" d="M8.99644 12.4098C9.56448 13.0346 10.4854 13.0346 11.0535 12.4098C11.0539 12.4094 11.0543 12.4089 11.0547 12.4085L19.2816 3.35882C19.8497 2.73398 19.8497 1.72091 19.2816 1.09608C18.7136 0.471237 17.7926 0.471237 17.2246 1.09608L10.025 9.01567L2.82533 1.09608C2.2573 0.471238 1.33633 0.471238 0.768294 1.09608C0.200258 1.72092 0.200258 2.73398 0.768293 3.35882L8.99619 12.4095C8.99627 12.4096 8.99636 12.4097 8.99644 12.4098C8.99644 12.4098 8.99644 12.4098 8.99644 12.4098Z" fill="#001500"/>
</g>
<defs>
<clipPath id="clip0_2086_1846">
<rect width="20" height="14" fill="white"/>
</clipPath>
</defs>
</svg>
