<svg width="20" height="14" viewBox="0 0 20 14" fill="none" xmlns="http://www.w3.org/2000/svg">
<g clip-path="url(#clip0_2086_1850)">
<path fill-rule="evenodd" clip-rule="evenodd" d="M11.0036 1.59022C10.4355 0.965377 9.51455 0.965377 8.94652 1.59022C8.94613 1.59065 8.94573 1.59108 8.94534 1.59151L0.718368 10.6412C0.150332 11.266 0.150332 12.2791 0.718367 12.9039C1.2864 13.5288 2.20737 13.5288 2.7754 12.9039L9.97504 4.98433L17.1747 12.9039C17.7427 13.5288 18.6637 13.5288 19.2317 12.9039C19.7997 12.2791 19.7997 11.266 19.2317 10.6412L11.0038 1.5905C11.0037 1.59041 11.0036 1.59031 11.0036 1.59022C11.0036 1.59022 11.0036 1.59022 11.0036 1.59022Z" fill="#00830C"/>
</g>
<defs>
<clipPath id="clip0_2086_1850">
<rect width="20" height="14" fill="white" transform="matrix(-1 0 0 -1 20 14)"/>
</clipPath>
</defs>
</svg>
